<mxfile host="app.diagrams.net" agent="Mozilla/5.0 (Windows NT 10.0; Win64; x64) AppleWebKit/537.36 (KHTML, like Gecko) Chrome/134.0.0.0 Safari/537.36" version="26.1.1">
  <diagram name="Page-1" id="oyfEPvOaWqxFs-JkhqdH">
    <mxGraphModel dx="1434" dy="738" grid="1" gridSize="10" guides="1" tooltips="1" connect="1" arrows="1" fold="1" page="1" pageScale="1" pageWidth="827" pageHeight="1169" math="0" shadow="0">
      <root>
        <mxCell id="0" />
        <mxCell id="1" parent="0" />
        <mxCell id="0PMq34QOJspel1TXhl1o-3" value="IDS" style="html=1;whiteSpace=wrap;gradientColor=none;fillColor=none;dashed=1;fontSize=14;verticalAlign=top;fontStyle=1" vertex="1" parent="1">
          <mxGeometry x="310" y="100" width="680" height="560" as="geometry" />
        </mxCell>
        <mxCell id="0PMq34QOJspel1TXhl1o-4" style="edgeStyle=orthogonalEdgeStyle;rounded=0;orthogonalLoop=1;jettySize=auto;html=1;exitX=1;exitY=0.5;exitDx=0;exitDy=0;entryX=0;entryY=0.5;entryDx=0;entryDy=0;" edge="1" parent="1" source="0PMq34QOJspel1TXhl1o-1" target="0PMq34QOJspel1TXhl1o-2">
          <mxGeometry relative="1" as="geometry" />
        </mxCell>
        <mxCell id="0PMq34QOJspel1TXhl1o-1" value="External Website.&lt;div&gt;E.g. Dispatch/Admin&lt;/div&gt;" style="html=1;whiteSpace=wrap;fontSize=14;" vertex="1" parent="1">
          <mxGeometry x="60" y="155" width="220" height="90" as="geometry" />
        </mxCell>
        <mxCell id="0PMq34QOJspel1TXhl1o-6" style="edgeStyle=orthogonalEdgeStyle;rounded=0;orthogonalLoop=1;jettySize=auto;html=1;exitX=0.5;exitY=1;exitDx=0;exitDy=0;entryX=0.5;entryY=0;entryDx=0;entryDy=0;" edge="1" parent="1" source="0PMq34QOJspel1TXhl1o-2" target="0PMq34QOJspel1TXhl1o-5">
          <mxGeometry relative="1" as="geometry" />
        </mxCell>
        <mxCell id="0PMq34QOJspel1TXhl1o-7" value="LoginViewModel&lt;div&gt;Username + Password&lt;/div&gt;" style="edgeLabel;html=1;align=center;verticalAlign=middle;resizable=0;points=[];" vertex="1" connectable="0" parent="0PMq34QOJspel1TXhl1o-6">
          <mxGeometry x="-0.0857" y="1" relative="1" as="geometry">
            <mxPoint as="offset" />
          </mxGeometry>
        </mxCell>
        <mxCell id="0PMq34QOJspel1TXhl1o-2" value="Login&lt;div&gt;Page&lt;/div&gt;" style="html=1;whiteSpace=wrap;fontSize=14;" vertex="1" parent="1">
          <mxGeometry x="560" y="160" width="86" height="80" as="geometry" />
        </mxCell>
        <mxCell id="0PMq34QOJspel1TXhl1o-11" style="edgeStyle=orthogonalEdgeStyle;rounded=0;orthogonalLoop=1;jettySize=auto;html=1;exitX=0;exitY=0.5;exitDx=0;exitDy=0;entryX=1;entryY=0.5;entryDx=0;entryDy=0;" edge="1" parent="1" source="0PMq34QOJspel1TXhl1o-5" target="0PMq34QOJspel1TXhl1o-8">
          <mxGeometry relative="1" as="geometry" />
        </mxCell>
        <mxCell id="0PMq34QOJspel1TXhl1o-12" value="Is Admin&lt;div&gt;or&lt;/div&gt;&lt;div&gt;client does not require 2FA&lt;/div&gt;" style="edgeLabel;html=1;align=center;verticalAlign=middle;resizable=0;points=[];labelBackgroundColor=none;" vertex="1" connectable="0" parent="0PMq34QOJspel1TXhl1o-11">
          <mxGeometry x="-0.1481" y="2" relative="1" as="geometry">
            <mxPoint x="-14" y="-2" as="offset" />
          </mxGeometry>
        </mxCell>
        <mxCell id="0PMq34QOJspel1TXhl1o-5" value="Login" style="html=1;whiteSpace=wrap;fontSize=14;" vertex="1" parent="1">
          <mxGeometry x="560" y="310" width="86" height="80" as="geometry" />
        </mxCell>
        <mxCell id="0PMq34QOJspel1TXhl1o-9" style="edgeStyle=orthogonalEdgeStyle;rounded=0;orthogonalLoop=1;jettySize=auto;html=1;exitX=0;exitY=0.5;exitDx=0;exitDy=0;entryX=0.75;entryY=1;entryDx=0;entryDy=0;" edge="1" parent="1" source="0PMq34QOJspel1TXhl1o-8" target="0PMq34QOJspel1TXhl1o-1">
          <mxGeometry relative="1" as="geometry" />
        </mxCell>
        <mxCell id="0PMq34QOJspel1TXhl1o-10" value="Redirect" style="edgeLabel;html=1;align=center;verticalAlign=middle;resizable=0;points=[];" vertex="1" connectable="0" parent="0PMq34QOJspel1TXhl1o-9">
          <mxGeometry x="-0.087" y="-1" relative="1" as="geometry">
            <mxPoint x="35" y="1" as="offset" />
          </mxGeometry>
        </mxCell>
        <mxCell id="0PMq34QOJspel1TXhl1o-8" value="Complete&lt;div&gt;Login&lt;/div&gt;" style="html=1;whiteSpace=wrap;fontSize=14;" vertex="1" parent="1">
          <mxGeometry x="320" y="310" width="86" height="80" as="geometry" />
        </mxCell>
      </root>
    </mxGraphModel>
  </diagram>
</mxfile>
